<?xml version="1.0" encoding="iso-8859-1"?>
<!-- Uploaded to: SVG Repo, www.svgrepo.com, Generator: SVG Repo Mixer Tools -->
<svg fill="#000000" height="800px" width="800px" version="1.1" id="Layer_1" xmlns="http://www.w3.org/2000/svg" xmlns:xlink="http://www.w3.org/1999/xlink" 
	 viewBox="0 0 512 512" xml:space="preserve">
<g>
	<g>
		<g>
			<path d="M503.467,0H332.8H256H136.533h-76.8h-51.2C3.82,0,0,3.82,0,8.533V281.6V384c0,4.713,3.82,8.533,8.533,8.533H25.6v102.4
				H8.533c-4.713,0-8.533,3.82-8.533,8.533S3.82,512,8.533,512h25.6h51.2h341.333h51.2h25.6c4.713,0,8.533-3.82,8.533-8.533
				s-3.82-8.533-8.533-8.533H486.4v-102.4h17.067c4.713,0,8.533-3.82,8.533-8.533V281.6V8.533C512,3.82,508.18,0,503.467,0z
				 M494.933,273.067h-153.6v-256h153.6V273.067z M324.267,273.067h-59.733v-34.133c0-4.713-3.82-8.533-8.533-8.533H136.533
				c-4.713,0-8.533,3.82-8.533,8.533v34.133H68.267v-256H128v76.8c0,0.079,0.01,0.156,0.012,0.234
				c0.005,0.183,0.01,0.366,0.028,0.551c0.02,0.219,0.054,0.434,0.09,0.648c0.015,0.086,0.022,0.171,0.039,0.257
				c0.066,0.329,0.154,0.649,0.257,0.962c0.005,0.016,0.007,0.031,0.012,0.047l17.067,51.2c1.161,3.485,4.422,5.835,8.095,5.835
				h8.533v25.6c0,4.713,3.82,8.533,8.533,8.533h51.2c4.713,0,8.533-3.82,8.533-8.533v-25.6h8.533c3.673,0,6.934-2.35,8.095-5.835
				l17.067-51.2c0.005-0.016,0.007-0.031,0.013-0.047c0.102-0.313,0.19-0.633,0.256-0.961c0.018-0.088,0.025-0.174,0.04-0.262
				c0.036-0.212,0.069-0.425,0.089-0.642c0.018-0.186,0.023-0.369,0.028-0.553c0.002-0.078,0.012-0.154,0.012-0.232v-76.8h59.733
				V273.067z M247.467,273.067h-102.4v-25.6h102.4V273.067z M179.2,153.6h34.133v17.067H179.2V153.6z M221.867,136.533h-51.2H159.75
				L148.373,102.4h95.788l-11.378,34.133H221.867z M247.467,17.067v68.267h-102.4V17.067H247.467z M17.067,17.067H51.2v256H17.067
				V17.067z M42.667,494.933v-102.4H76.8v102.4H42.667z M418.133,392.533v102.4H93.867v-102.4H418.133z M469.333,494.933H435.2
				v-102.4h34.133V494.933z M494.933,375.467h-17.067h-51.2H85.333h-51.2H17.067v-85.333h42.667h76.8H256h76.8h162.133V375.467z"/>
			<path d="M366.933,119.467h102.4c4.713,0,8.533-3.82,8.533-8.533V42.667c0-4.713-3.82-8.533-8.533-8.533h-102.4
				c-4.713,0-8.533,3.82-8.533,8.533v68.267C358.4,115.646,362.221,119.467,366.933,119.467z M375.467,51.2H460.8v51.2h-85.333V51.2
				z"/>
			<path d="M366.933,179.2c4.713,0,8.533-3.82,8.533-8.533v-25.6c0-4.713-3.82-8.533-8.533-8.533s-8.533,3.82-8.533,8.533v25.6
				C358.4,175.38,362.221,179.2,366.933,179.2z"/>
			<path d="M469.333,136.533c-4.713,0-8.533,3.82-8.533,8.533v25.6c0,4.713,3.82,8.533,8.533,8.533s8.533-3.82,8.533-8.533v-25.6
				C477.867,140.354,474.046,136.533,469.333,136.533z"/>
			<path d="M435.2,179.2c4.713,0,8.533-3.82,8.533-8.533v-25.6c0-4.713-3.82-8.533-8.533-8.533s-8.533,3.82-8.533,8.533v25.6
				C426.667,175.38,430.487,179.2,435.2,179.2z"/>
			<path d="M401.067,136.533c-4.713,0-8.533,3.82-8.533,8.533v25.6c0,4.713,3.821,8.533,8.533,8.533s8.533-3.82,8.533-8.533v-25.6
				C409.6,140.354,405.78,136.533,401.067,136.533z"/>
			<path d="M366.933,247.467h34.133c4.713,0,8.533-3.82,8.533-8.533V204.8c0-4.713-3.82-8.533-8.533-8.533h-34.133
				c-4.713,0-8.533,3.82-8.533,8.533v34.133C358.4,243.646,362.221,247.467,366.933,247.467z M375.467,213.333h17.067V230.4h-17.067
				V213.333z"/>
			<path d="M469.333,196.267H435.2c-4.713,0-8.533,3.82-8.533,8.533v34.133c0,4.713,3.82,8.533,8.533,8.533h34.133
				c4.713,0,8.533-3.82,8.533-8.533V204.8C477.867,200.087,474.046,196.267,469.333,196.267z M460.8,230.4h-17.067v-17.067H460.8
				V230.4z"/>
			<path d="M85.333,307.2c-14.142,0-25.6,11.458-25.6,25.6c0,14.142,11.458,25.6,25.6,25.6c14.142,0,25.6-11.458,25.6-25.6
				C110.933,318.658,99.476,307.2,85.333,307.2z M85.333,341.333c-4.716,0-8.533-3.817-8.533-8.533c0-4.716,3.817-8.533,8.533-8.533
				c4.717,0,8.533,3.817,8.533,8.533C93.867,337.517,90.05,341.333,85.333,341.333z"/>
			<path d="M153.6,307.2c-14.142,0-25.6,11.458-25.6,25.6c0,14.142,11.458,25.6,25.6,25.6c14.142,0,25.6-11.458,25.6-25.6
				C179.2,318.658,167.742,307.2,153.6,307.2z M153.6,341.333c-4.717,0-8.533-3.817-8.533-8.533c0-4.716,3.817-8.533,8.533-8.533
				c4.716,0,8.533,3.817,8.533,8.533C162.133,337.517,158.317,341.333,153.6,341.333z"/>
			<path d="M221.867,307.2c-14.142,0-25.6,11.458-25.6,25.6c0,14.142,11.458,25.6,25.6,25.6s25.6-11.458,25.6-25.6
				C247.467,318.658,236.009,307.2,221.867,307.2z M221.867,341.333c-4.717,0-8.533-3.817-8.533-8.533
				c0-4.716,3.817-8.533,8.533-8.533c4.716,0,8.533,3.817,8.533,8.533C230.4,337.517,226.583,341.333,221.867,341.333z"/>
			<path d="M290.133,307.2c-14.142,0-25.6,11.458-25.6,25.6c0,14.142,11.458,25.6,25.6,25.6s25.6-11.458,25.6-25.6
				C315.733,318.658,304.276,307.2,290.133,307.2z M290.133,341.333c-4.716,0-8.533-3.817-8.533-8.533
				c0-4.716,3.817-8.533,8.533-8.533s8.533,3.817,8.533,8.533C298.667,337.517,294.85,341.333,290.133,341.333z"/>
			<path d="M358.4,358.4c14.142,0,25.6-11.458,25.6-25.6c0-14.142-11.458-25.6-25.6-25.6s-25.6,11.458-25.6,25.6
				C332.8,346.942,344.258,358.4,358.4,358.4z M358.4,324.267c4.716,0,8.533,3.817,8.533,8.533c0,4.717-3.817,8.533-8.533,8.533
				s-8.533-3.817-8.533-8.533C349.867,328.083,353.684,324.267,358.4,324.267z"/>
			<path d="M426.667,358.4c14.142,0,25.6-11.458,25.6-25.6c0-14.142-11.458-25.6-25.6-25.6s-25.6,11.458-25.6,25.6
				C401.067,346.942,412.525,358.4,426.667,358.4z M426.667,324.267c4.716,0,8.533,3.817,8.533,8.533
				c0,4.717-3.817,8.533-8.533,8.533s-8.533-3.817-8.533-8.533C418.133,328.083,421.95,324.267,426.667,324.267z"/>
		</g>
	</g>
</g>
</svg>