<?xml version="1.0" encoding="iso-8859-1"?>
<!-- Uploaded to: SVG Repo, www.svgrepo.com, Generator: SVG Repo Mixer Tools -->
<svg fill="#000000" height="800px" width="800px" version="1.1" id="Layer_1" xmlns="http://www.w3.org/2000/svg" xmlns:xlink="http://www.w3.org/1999/xlink" 
	 viewBox="0 0 512 512" xml:space="preserve">
<g>
	<g>
		<path d="M503.983,329.219h-14.2l-100.384-83.654c-5.122-4.268-13.148-0.495-13.148,6.159v68.395l-89.465-74.554
			c-5.122-4.268-13.148-0.495-13.148,6.159v68.395l-89.465-74.554c-5.122-4.268-13.148-0.495-13.148,6.159v77.495H151.06
			l-6.8-61.206c0-0.005-0.001-0.01-0.002-0.015l-8.558-77.017c-0.451-4.061-3.882-7.132-7.968-7.132H59.324
			c-4.085,0-7.516,3.072-7.968,7.132l-2.851,25.653c-0.49,4.401,2.682,8.364,7.083,8.853c4.395,0.498,8.364-2.681,8.853-7.083
			l2.059-18.522h54.058l6.769,60.927H59.729l0.911-8.201c0.49-4.4-2.682-8.364-7.083-8.853c-4.394-0.48-8.364,2.682-8.853,7.083
			l-1.907,17.158c-0.001,0.006-0.001,0.012-0.002,0.017l-6.799,61.205H8.017c-4.427,0-8.017,3.588-8.017,8.017v162.472
			c0,4.428,3.589,8.017,8.017,8.017h495.967c4.427,0,8.017-3.588,8.017-8.017V337.236C512,332.807,508.411,329.219,503.983,329.219z
			 M392.284,268.841l72.455,60.379h-72.455V268.841z M187.056,268.841l72.455,60.379h-72.455V268.841z M57.948,276.843h71.161
			l2.019,18.171H55.929L57.948,276.843z M54.147,311.048h78.762l2.019,18.171H52.128L54.147,311.048z M495.967,491.691H16.033
			V345.253h299.825c4.427,0,8.017-3.588,8.017-8.017c0-4.428-3.589-8.017-8.017-8.017H289.67v-60.379l72.455,60.379h-12.063
			c-4.427,0-8.017,3.588-8.017,8.017c0,4.428,3.589,8.017,8.017,8.017h145.904V491.691z"/>
	</g>
</g>
<g>
	<g>
		<path d="M59.324,363.424H33.67c-4.427,0-8.017,3.588-8.017,8.017v34.205c0,4.428,3.589,8.017,8.017,8.017h25.653
			c4.427,0,8.017-3.588,8.017-8.017V371.44C67.34,367.012,63.751,363.424,59.324,363.424z M51.307,397.628h-9.62v-18.171h9.62
			V397.628z"/>
	</g>
</g>
<g>
	<g>
		<path d="M119.182,363.424H93.528c-4.427,0-8.017,3.588-8.017,8.017v34.205c0,4.428,3.589,8.017,8.017,8.017h25.653
			c4.427,0,8.017-3.588,8.017-8.017V371.44C127.198,367.012,123.609,363.424,119.182,363.424z M111.165,397.628h-9.62v-18.171h9.62
			V397.628z"/>
	</g>
</g>
<g>
	<g>
		<path d="M179.04,363.424h-25.653c-4.427,0-8.017,3.588-8.017,8.017v34.205c0,4.428,3.589,8.017,8.017,8.017h25.653
			c4.427,0,8.017-3.588,8.017-8.017V371.44C187.056,367.012,183.467,363.424,179.04,363.424z M171.023,397.628h-9.62v-18.171h9.62
			V397.628z"/>
	</g>
</g>
<g>
	<g>
		<path d="M238.898,363.424h-25.653c-4.427,0-8.017,3.588-8.017,8.017v34.205c0,4.428,3.589,8.017,8.017,8.017h25.653
			c4.427,0,8.017-3.588,8.017-8.017V371.44C246.914,367.012,243.325,363.424,238.898,363.424z M230.881,397.628h-9.62v-18.171h9.62
			V397.628z"/>
	</g>
</g>
<g>
	<g>
		<path d="M298.756,363.424h-25.653c-4.427,0-8.017,3.588-8.017,8.017v34.205c0,4.428,3.589,8.017,8.017,8.017h25.653
			c4.427,0,8.017-3.588,8.017-8.017V371.44C306.772,367.012,303.183,363.424,298.756,363.424z M290.739,397.628h-9.62v-18.171h9.62
			V397.628z"/>
	</g>
</g>
<g>
	<g>
		<path d="M358.614,363.424H332.96c-4.427,0-8.017,3.588-8.017,8.017v34.205c0,4.428,3.589,8.017,8.017,8.017h25.653
			c4.427,0,8.017-3.588,8.017-8.017V371.44C366.63,367.012,363.041,363.424,358.614,363.424z M350.597,397.628h-9.62v-18.171h9.62
			V397.628z"/>
	</g>
</g>
<g>
	<g>
		<path d="M418.472,363.424h-25.653c-4.427,0-8.017,3.588-8.017,8.017v34.205c0,4.428,3.589,8.017,8.017,8.017h25.653
			c4.427,0,8.017-3.588,8.017-8.017V371.44C426.489,367.012,422.899,363.424,418.472,363.424z M410.455,397.628h-9.62v-18.171h9.62
			V397.628z"/>
	</g>
</g>
<g>
	<g>
		<path d="M478.33,363.424h-25.653c-4.427,0-8.017,3.588-8.017,8.017v34.205c0,4.428,3.589,8.017,8.017,8.017h25.653
			c4.427,0,8.017-3.588,8.017-8.017V371.44C486.347,367.012,482.757,363.424,478.33,363.424z M470.313,397.628h-9.62v-18.171h9.62
			V397.628z"/>
	</g>
</g>
<g>
	<g>
		<path d="M59.324,423.282H33.67c-4.427,0-8.017,3.588-8.017,8.017v34.205c0,4.428,3.589,8.017,8.017,8.017h25.653
			c4.427,0,8.017-3.588,8.017-8.017v-34.205C67.34,426.87,63.751,423.282,59.324,423.282z M51.307,457.486h-9.62v-18.171h9.62
			V457.486z"/>
	</g>
</g>
<g>
	<g>
		<path d="M119.182,423.282H93.528c-4.427,0-8.017,3.588-8.017,8.017v34.205c0,4.428,3.589,8.017,8.017,8.017h25.653
			c4.427,0,8.017-3.588,8.017-8.017v-34.205C127.198,426.87,123.609,423.282,119.182,423.282z M111.165,457.486h-9.62v-18.171h9.62
			V457.486z"/>
	</g>
</g>
<g>
	<g>
		<path d="M179.04,423.282h-25.653c-4.427,0-8.017,3.588-8.017,8.017v34.205c0,4.428,3.589,8.017,8.017,8.017h25.653
			c4.427,0,8.017-3.588,8.017-8.017v-34.205C187.056,426.87,183.467,423.282,179.04,423.282z M171.023,457.486h-9.62v-18.171h9.62
			V457.486z"/>
	</g>
</g>
<g>
	<g>
		<path d="M238.898,423.282h-25.653c-4.427,0-8.017,3.588-8.017,8.017v34.205c0,4.428,3.589,8.017,8.017,8.017h25.653
			c4.427,0,8.017-3.588,8.017-8.017v-34.205C246.914,426.87,243.325,423.282,238.898,423.282z M230.881,457.486h-9.62v-18.171h9.62
			V457.486z"/>
	</g>
</g>
<g>
	<g>
		<path d="M298.756,423.282h-25.653c-4.427,0-8.017,3.588-8.017,8.017v34.205c0,4.428,3.589,8.017,8.017,8.017h25.653
			c4.427,0,8.017-3.588,8.017-8.017v-34.205C306.772,426.87,303.183,423.282,298.756,423.282z M290.739,457.486h-9.62v-18.171h9.62
			V457.486z"/>
	</g>
</g>
<g>
	<g>
		<path d="M358.614,423.282H332.96c-4.427,0-8.017,3.588-8.017,8.017v34.205c0,4.428,3.589,8.017,8.017,8.017h25.653
			c4.427,0,8.017-3.588,8.017-8.017v-34.205C366.63,426.87,363.041,423.282,358.614,423.282z M350.597,457.486h-9.62v-18.171h9.62
			V457.486z"/>
	</g>
</g>
<g>
	<g>
		<path d="M418.472,423.282h-25.653c-4.427,0-8.017,3.588-8.017,8.017v34.205c0,4.428,3.589,8.017,8.017,8.017h25.653
			c4.427,0,8.017-3.588,8.017-8.017v-34.205C426.489,426.87,422.899,423.282,418.472,423.282z M410.455,457.486h-9.62v-18.171h9.62
			V457.486z"/>
	</g>
</g>
<g>
	<g>
		<path d="M478.33,423.282h-25.653c-4.427,0-8.017,3.588-8.017,8.017v34.205c0,4.428,3.589,8.017,8.017,8.017h25.653
			c4.427,0,8.017-3.588,8.017-8.017v-34.205C486.347,426.87,482.757,423.282,478.33,423.282z M470.313,457.486h-9.62v-18.171h9.62
			V457.486z"/>
	</g>
</g>
<g>
	<g>
		<path d="M102.079,123.992c-13.851,0-25.119,11.268-25.119,25.119s11.268,25.119,25.119,25.119s25.119-11.268,25.119-25.119
			S115.93,123.992,102.079,123.992z M102.079,158.196c-5.01,0-9.086-4.076-9.086-9.086s4.076-9.086,9.086-9.086
			s9.086,4.076,9.086,9.086S107.089,158.196,102.079,158.196z"/>
	</g>
</g>
<g>
	<g>
		<path d="M187.591,81.236c-18.566,0-33.67,15.105-33.67,33.67s15.105,33.67,33.67,33.67s33.67-15.105,33.67-33.67
			S206.156,81.236,187.591,81.236z M187.591,132.543c-9.725,0-17.637-7.912-17.637-17.637s7.912-17.637,17.637-17.637
			s17.637,7.912,17.637,17.637S197.316,132.543,187.591,132.543z"/>
	</g>
</g>
<g>
	<g>
		<path d="M315.858,4.276c-37.426,0-67.875,30.448-67.875,67.875c0,37.426,30.449,67.875,67.875,67.875
			c37.426,0,67.875-30.449,67.875-67.875C383.733,34.724,353.284,4.276,315.858,4.276z M315.858,123.992
			c-28.585,0-51.841-23.256-51.841-51.841c0-28.585,23.256-51.841,51.841-51.841s51.841,23.256,51.841,51.841
			C367.699,100.736,344.443,123.992,315.858,123.992z"/>
	</g>
</g>
<g>
	<g>
		<path d="M338.602,40.078c-7.521,1.376-32.669,6.473-40.506,14.31c0,0,0,0,0,0.001c-4.745,4.744-7.357,11.052-7.357,17.761
			c0,3.941,0.907,7.74,2.613,11.168l-7.349,7.349c-3.131,3.131-3.131,8.207,0,11.337c1.565,1.567,3.616,2.349,5.668,2.349
			c2.051,0,4.103-0.782,5.668-2.347l7.35-7.349c9.56,4.755,21.393,2.794,28.93-4.744c7.837-7.837,12.936-32.984,14.31-40.506
			C348.922,43.987,344.026,39.084,338.602,40.078z M322.282,78.575c-3.502,3.502-9.347,3.501-12.848-0.001
			c-3.502-3.502-3.502-9.346,0-12.848c1.917-1.889,10.239-4.815,20.14-7.291C327.097,68.335,324.171,76.658,322.282,78.575z"/>
	</g>
</g>
</svg>